<svg xmlns="http://www.w3.org/2000/svg" viewBox="0 0 64 64">
  <circle cx="32" cy="32" r="32" fill="#f7931a"/>
  <path fill="#fff" d="M46.1 28.3c.6-4.1-2.5-6.3-6.8-7.8l1.4-5.6-3.4-.8-1.4 5.4c-.9-.2-1.8-.4-2.7-.7l1.4-5.5-3.4-.8-1.4 5.6c-.7-.2-1.5-.4-2.2-.5l-4.7-1.2-.9 3.6s2.5.6 2.5.6c1.4.3 1.6 1.2 1.6 1.9l-1.6 6.4c.1 0 .2.1.3.1l-.3-.1-2.2 9c-.2.4-.6 1.1-1.6.8 0 0-2.5-.6-2.5-.6l-1.7 3.9 4.4 1.1c.8.2 1.6.4 2.5.6l-1.4 5.7 3.4.8 1.4-5.6c.9.3 1.8.5 2.7.7l-1.4 5.5 3.4.8 1.4-5.6c5.9 1.1 10.3.7 12.2-4.7 1.5-4.3-.1-6.8-3.2-8.4 2.3-.5 4-2.1 4.4-5.2zm-7.9 11.1c-1.1 4.3-8.3 2-10.7 1.4l1.9-7.6c2.4.6 9.9 1.8 8.8 6.2zm1.1-11.2c-1 3.9-7 1.9-9 1.4l1.7-6.9c2 .5 8.3 1.5 7.3 5.5z"/>
</svg>
